<svg id="Layer_1" data-name="Layer 1" xmlns="http://www.w3.org/2000/svg" viewBox="0 0 1630.73 844.3">
  <title>mexico-svg</title>
  <path d="M2349,952l.72-697.92a47.54,47.54,0,0,0,8.64,0c3.36-.48,9.12-1,10.56-1s4.32,2.4,5.76,2.88,1,1.44,7.2,1.44,8.64-1,13.44-1.44,3.84,0,14.4,1a166.62,166.62,0,0,0,17.28,1,68.19,68.19,0,0,1,11.52,1.44,41.21,41.21,0,0,0,8.16,1.44c1.92,0,6.72,0,9.6-1a50.56,50.56,0,0,1,8.64-1.44H2475s8.16,2.4,10.56,2.88,1.44,1.92,9.6.48,10.08-2.4,13.44-1.44,5.76,3.36,8.64,3.36h8.16s4.32.48,5.76,0a40.31,40.31,0,0,0,5.76-1.92c1.92-1,7.2-1.92,7.2-1.92a43.15,43.15,0,0,1,5.76,1.44l2.88,1,1.8.72s.72-9,0-13.68-.9-3.42-.72-5.94a20.75,20.75,0,0,1,.54-4.68c.54-2.52,1.26-1.8,1.26-5V227.5l1.44-1.08h1.26s1.26-.72,1.44,1.8.18,3.42.18,4.32a9.9,9.9,0,0,1-.54,2.88,5,5,0,0,0-.36,3.42,32.34,32.34,0,0,1,.54,5.58V248c0,1.62-.72,2.34,0,2.88s1.26-1.26,1.26.9a15.51,15.51,0,0,1-.54,3.78c-.18,1.26-.54,1.08-.54,2.7s.18,4.14.18,4.14,9-1.62,10.08-2.7,5.4-2.16,10.8-.36,3.6,2.52,9.72,2.52h11.88a75.14,75.14,0,0,1,8.28.72l7.2,1.08h5.76c5.4,0,10.08-.36,10.08-.36L2700,264s9.36,2.52,13.68,4,7.92,2.88,15.12,2.52,11.16-.36,14-.72,4.68-.36,8.28-1.08,11.52-.72,11.52-.72a34.71,34.71,0,0,1,4.32.72,11.58,11.58,0,0,1,2.52,1.44l3.06-35.82-5.22-1,6.6-16.8,1.68-35.28-7.56-8.28,37.08-.72-13.32,11.52.9,36.72,4.32,4.5,10.26,5.58,1.8,2,20.52,7.62-.72,1.56-23.16-6.36s-5-1.32-6.6-.84a11.76,11.76,0,0,0-3.12,1.68l.48,32.64S2812,270.4,2813,270.4h7c4.56,0,9.6.24,9.6.24s9.6.24,12.24.24h7.68l6.48-3.12s2.16-2.4,4.32-.48-7.2,5,5,3.36,14.64-.48,14.64-.48l2.64-1.2,3.12.72a6.21,6.21,0,0,0,3.36.84,32.12,32.12,0,0,1,6.12,1.08,1.45,1.45,0,0,1,1.8,1.08c.36,1.44,5,26.64,6.84,32s6.48,15.48,7.92,20.16S2914.6,336,2914.6,336a92.3,92.3,0,0,1,2.16,10.44c1.44,8.28,1.8,13.68,1.8,13.68s-3.6,4.32,5,13.68,10.08,8.28,10.8,10.08a44.09,44.09,0,0,0,2.52,6.12c1.8,3.6,1.08,3.6,3.6,8.28s2.16,5,5.4,7.92,5.76,3.6,7.56,5,6.12,5.76,6.12,5.76,2.88,2.88,2.88,4.32,1.8,6.48,2.88,9a38.19,38.19,0,0,0,4.32,8.64c2.52,3.6,5.76,3.6,10.8,5.76s16.56,8.28,22,51.12,9.36,59,7.56,76l11.16,16.56,67.68,8.28,3.6,6.48-59.76,5.76-4,31s6.84-15.12,9.72-14.4,6.84,2.88,7.2,4,2.88,9.72,4,11.16,1.8,7.56,4.32,9,7.56,5.76,11.16,7.56,4.32,5.76,6.84,11.16,3.6,10.44,7.56,12.6,4.68,1.44,6.84,5,25.92,35.28,25.92,35.28-4.68,6.48,10.08,11.88,15.48,5.4,23.4,14,12.6,7.2,21.24,9.36,9-2.52,16.56,5,8.28,6.12,15.84,11.52S3213,784.6,3220.6,785s18.72,4.32,28.08,0,20.88,1.8,30.24-1.08,18.72-5.76,26.28.72,13,1.44,16.92,9.36,35.64-6.48,35.64-6.48,3.24-13,23.4,2.88S3402,809.44,3406,810.52s26.28,21.6,50,14,31.32-5.4,43.2-8.64a75.93,75.93,0,0,1,23.76-2.16s23.76,19.44,31.32,20.52-14,3.24,18.36,4.32,50.76-3.24,68-9.72,31.32-5.4,44.28-5.4,20.52-1.08,33.48-5.4,27-9.72,27-9.72l4.32-3.24.53,153.32H2350" transform="translate(-2119.6 -172.24)" fill="#2e45ff"/>
  <path d="M3847.6,177.28" transform="translate(-2119.6 -172.24)" fill="none" stroke="#000" stroke-miterlimit="10"/>
  <line x1="1400.33" y1="843.8" y2="843.8" fill="none" stroke="#000" stroke-miterlimit="10"/>
</svg>
