<svg id="Layer_1" data-name="Layer 1" xmlns="http://www.w3.org/2000/svg" viewBox="0 0 1319.76 767.29">
  <title>usa-svg</title>
  <path d="M1303.69,10l-.5,735.58h0l-4.07,3s-13.23,5.09-25.45,9.16-19.34,5.09-31.55,5.09-25.45-1-41.73,5.09-33.59,10.18-64.13,9.16-10.18-3-17.3-4.07-29.52-19.34-29.52-19.34a71.56,71.56,0,0,0-22.39,2c-11.2,3.06-18.33,1-40.72,8.15s-43.43-12.22-47.16-13.23-4.41-4.08-23.41-19-22-2.71-22-2.71-29.86,13.57-33.59,6.11-8.82-2.72-16-8.82-15.95-3.4-24.77-.68-19.68-3.06-28.5,1-19.34.33-26.46,0-12.9-6.11-20-11.2-7.8-3.73-14.93-10.86-7.46-2.71-15.61-4.75-12.55-.68-20-8.82-8.15-8.14-22.06-13.23-9.5-11.2-9.5-11.2-22.39-29.86-24.43-33.25-2.71-2.71-6.44-4.75-4.75-6.78-7.13-11.87-3-8.83-6.44-10.52-8.15-5.77-10.52-7.13-3.06-7.12-4.07-8.48-3.4-9.5-3.74-10.52-4.07-3-6.78-3.73-9.16,13.57-9.16,13.57l3.73-29.18,56.32-5.42-3.39-6.11-63.79-7.81L606,525.72c1.7-16-2-31.22-7.12-71.59s-16-46.15-20.7-48.18-7.8-2-10.18-5.43a36.32,36.32,0,0,1-4.07-8.14c-1-2.38-2.71-7.13-2.71-8.48s-2.72-4.08-2.72-4.08-4.07-4.07-5.76-5.43-4.08-2-7.13-4.75-2.71-3.05-5.09-7.46-1.69-4.41-3.39-7.8a41.68,41.68,0,0,1-2.38-5.77c-.67-1.7-2-.68-10.17-9.5s-4.75-12.89-4.75-12.89-.34-5.09-1.7-12.9a87.18,87.18,0,0,0-2-9.84s-1.35-6.1-2.71-10.51-5.77-13.91-7.47-19-6.1-28.84-6.44-30.2a1.37,1.37,0,0,0-1.7-1,30.17,30.17,0,0,0-5.77-1,5.85,5.85,0,0,1-3.16-.79l-2.94-.68-2.49,1.13s-2.26-1.13-13.8.46-2.71-1.36-4.75-3.17-4.07.45-4.07.45l-6.11,2.94h-7.24c-2.48,0-11.53-.22-11.53-.22s-4.75-.23-9.05-.23h-6.56c-.9,0-15.49-1.47-15.49-1.47l-.46-30.76a11.25,11.25,0,0,1,2.94-1.59c1.47-.45,6.22.8,6.22.8l21.83,6,.68-1.47-19.34-7.18-1.69-1.87-9.67-5.26-4.08-4.24-.84-34.6,12.55-10.86-34.95.68,7.13,7.8-1.59,33.25-6.22,15.83,4.92,1-2.88,33.75a11.07,11.07,0,0,0-2.38-1.35,32.41,32.41,0,0,0-4.07-.68A79.81,79.81,0,0,0,362,240c-3.4.68-5.09.68-7.81,1s-6.44.34-13.23.68-10.18-1-14.25-2.37-12.89-3.73-12.89-3.73L251.4,235s-4.41.34-9.5.34h-5.43l-6.79-1a70.67,70.67,0,0,0-7.8-.68h-11.2c-5.76,0-4.07-.68-9.16-2.37s-9.16-.68-10.18.33-9.5,2.55-9.5,2.55-.17-2.38-.17-3.9.34-1.36.51-2.55a14.47,14.47,0,0,0,.51-3.56c0-2-.51-.34-1.18-.85s0-1.19,0-2.71v-3.39a30.34,30.34,0,0,0-.51-5.26,4.76,4.76,0,0,1,.34-3.23,9.51,9.51,0,0,0,.5-2.71c0-.85,0-1.7-.17-4.07s-1.35-1.7-1.35-1.7h-1.19l-1.36,1V207c0,3-.68,2.37-1.18,4.75a19.45,19.45,0,0,0-.51,4.41c-.17,2.37,0,1.18.68,5.6s0,12.89,0,12.89l-1.7-.68-2.72-.9a39.89,39.89,0,0,0-5.42-1.36,38.15,38.15,0,0,0-6.79,1.81,39.53,39.53,0,0,1-5.43,1.81c-1.36.45-5.43,0-5.43,0h-7.69c-2.71,0-5-2.26-8.14-3.17s-5,0-12.67,1.36-6.78,0-9-.45-10-2.72-10-2.72h-9.5a47.13,47.13,0,0,0-8.14,1.36c-2.71.9-7.24.9-9,.9a39,39,0,0,1-7.69-1.35,63.46,63.46,0,0,0-10.86-1.36A156.08,156.08,0,0,1,40.25,229c-9.95-.9-9-1.35-13.57-.9s-6.79,1.36-12.67,1.36-5.43-.91-6.79-1.36-4.07-2.72-5.42-2.72-6.79.46-10,.91a42.74,42.74,0,0,1-7.91,0V10Z" transform="translate(16.07 -10)" fill="#44ff17"/>
</svg>
